P2
4 4
20
4 6 8 12
3 0 2 4
4 1 3 4
5 4 9 7